# xmcd
#
# Track frame offsets:
#	150
#	3860
#	36325
#	57880
#	78730
#	111010
#	136972
#	140135
#	158392
#	184632
#	192200
#	220427
#
# Disc length: 3373 seconds
#
# Revision: 1
# Processed by: cddbd v1.5.1PL0 Copyright (c) Steve Scherf et al.
# Submitted via: CDex 1.50Beta5
#
DISCID=a20d2b0c
DTITLE=笹本安詞 - 短い夏の長い放課後
DYEAR=1996
DGENRE=Rock
TTITLE0=Introduction
TTITLE1=Summer Breeze
TTITLE2=大都会
TTITLE3=まね+まね=まね
TTITLE4=Desperate Love In The Rain
TTITLE5=ミモザの咲く頃
TTITLE6=Interlude #1
TTITLE7=何だかんだ言ってたって……
TTITLE8=First Love
TTITLE9=Interlude #2
TTITLE10=お説教,The
TTITLE11=短い夏の長い放課後
EXTD=
EXTT0=
EXTT1=
EXTT2=
EXTT3=
EXTT4=
EXTT5=
EXTT6=
EXTT7=
EXTT8=
EXTT9=
EXTT10=
EXTT11=
PLAYORDER=
